<?xml version="1.0" standalone="no"?><!DOCTYPE svg PUBLIC "-//W3C//DTD SVG 1.1//EN" "http://www.w3.org/Graphics/SVG/1.1/DTD/svg11.dtd"><svg t="1559803583423" class="icon" style="" viewBox="0 0 1024 1024" version="1.1" xmlns="http://www.w3.org/2000/svg" p-id="4538" xmlns:xlink="http://www.w3.org/1999/xlink" width="32" height="32"><defs><style type="text/css"></style></defs><path d="M345.409824 149.030692h49.227333V239.393193H345.409824z" fill="#C7C45D" p-id="4539"></path><path d="M370.02349 266.367074a269.738809 269.738809 0 0 0 186.456952-82.60751A256.589042 256.589042 0 0 0 635.04187 0a271.424677 271.424677 0 0 0-186.119778 82.944684A257.263389 257.263389 0 0 0 370.02349 266.367074z" fill="#7AA63B" p-id="4540"></path><path d="M370.02349 266.367074a269.738809 269.738809 0 0 0 186.456952-82.60751A257.263389 257.263389 0 0 0 635.04187 0l-90.699674 93.397063 46.529944 2.360214-65.411661 15.509982z" fill="#D9DBD9" p-id="4541"></path><path d="M656.620975 618.039046l-2.023041-5.731949-101.152054-290.980741a193.537596 193.537596 0 0 0-370.890862 0l-101.152054 290.980741-2.023041 5.731949a305.816375 305.816375 0 1 0 578.252572 0z" fill="#637542" p-id="4542"></path><path d="M690.675499 1022.984433h-276.145105a168.586756 168.586756 0 0 1-107.895524-306.153548l211.070618-168.586756 4.046082-3.371735a269.738809 269.738809 0 1 1 168.586756 479.12356z" fill="#BAC252" p-id="4543"></path><path d="M919.616314 674.347023a244.787969 244.787969 0 0 0-383.029109-110.592912l-8.429338 6.74347L321.470505 735.038255a146.333304 146.333304 0 0 0 92.048368 264.006859h276.819453a244.787969 244.787969 0 0 0 229.277988-324.698091z" fill="#EDE67A" p-id="4544"></path><path d="M504.814953 818.936317a117.336382 147.007651 70.59 1 0 277.304845-97.708855 117.336382 147.007651 70.59 1 0-277.304845 97.708855Z" fill="#BF7A3D" p-id="4545"></path><path d="M294.833797 332.790256m-46.529944 0a46.529945 46.529945 0 1 0 93.059889 0 46.529945 46.529945 0 1 0-93.059889 0Z" fill="#7A993B" p-id="4546"></path></svg>